<svg width="184" height="30" viewBox="0 0 184 30" fill="none" xmlns="http://www.w3.org/2000/svg">
<path fill-rule="evenodd" clip-rule="evenodd" d="M91.7379 15C91.7379 24.0061 98.5527 30 107.464 30C116.376 30 123.191 24.0061 123.191 15C123.191 5.99393 116.376 0 107.464 0C98.5527 0 91.7379 5.99393 91.7379 15ZM107.464 23.5714C112.097 23.5714 115.852 19.7339 115.852 15C115.852 10.2661 112.097 6.42857 107.464 6.42857C102.832 6.42857 99.0769 10.2661 99.0769 15C99.0769 19.7339 102.832 23.5714 107.464 23.5714ZM12.5812 0.535714L0 29.4643H8.38746L19.9202 22.5H10.4843L16.2507 8.03571L24.114 29.4643H32.5014L19.9202 0.535714H12.5812ZM33.5499 29.4643L45.0826 0.535714H53.4701L65.0029 29.4643H56.6154L49.2764 8.03571L41.9373 29.4643H33.5499ZM66.5755 0.535714H73.9145H79.1567C84.947 0.535714 89.641 5.33266 89.641 11.25C89.641 17.0989 85.055 21.8532 79.3572 21.9624L75.8098 16.0714H78.3704C80.8313 16.0714 82.8262 14.0327 82.8262 11.5179C82.8262 9.00299 80.8313 6.96429 78.3704 6.96429H73.9145V29.4643H66.5755V0.535714ZM124.764 15C124.764 24.0061 131.578 30 140.49 30C144.113 30 147.389 29.0094 150.002 27.2285L147.444 21.3456C145.814 22.7286 143.651 23.5714 141.276 23.5714C136.21 23.5714 132.103 19.7339 132.103 15C132.103 10.2661 136.21 6.42857 141.276 6.42857C143.651 6.42857 145.814 7.27141 147.444 8.65435L150.002 2.77146C147.389 0.990597 144.113 0 140.49 0C131.578 0 124.764 5.99393 124.764 15ZM184 29.4643H175.613L164.08 22.5H173.516L167.749 8.03571L159.886 29.4643H151.499L164.08 0.535714H171.419L184 29.4643Z" fill="#9FA2B4"/>
</svg>
